<?xml version="1.0" encoding="utf-8"?>
<!-- Generator: Adobe Illustrator 19.0.0, SVG Export Plug-In . SVG Version: 6.00 Build 0)  -->
<svg version="1.1" id="Layer_1" xmlns="http://www.w3.org/2000/svg" xmlns:xlink="http://www.w3.org/1999/xlink" x="0px" y="0px"
	 viewBox="0 0 81.9 57.9" style="enable-background:new 0 0 81.9 57.9;" xml:space="preserve">
<style type="text/css">
	.st0{fill:#E3E3E3;}
</style>
<g>
	<path class="st0" d="M52.7,17.1l-16,1l-0.7,4l0,0l-2.2,13.2c-0.8-0.5-1.9-0.7-3-0.4c-1.8,0.5-3,2-2.7,3.4c0.4,1.4,2.1,2.1,4,1.6
		c1.3-0.3,2.3-1.2,2.6-2.2l0,0l0-0.1c0.1-0.2,0.1-0.4,0.1-0.6L37.4,22l13.3-0.9l-2.2,13.3c-0.8-0.5-1.9-0.7-3-0.4
		c-1.8,0.5-3,2-2.7,3.4c0.4,1.4,2.1,2.1,4,1.6c1.5-0.4,2.6-1.5,2.7-2.7l0,0L52,21l0,0L52.7,17.1z"/>
</g>
</svg>
