<?xml version="1.0" encoding="utf-8"?>
<!-- Generator: Adobe Illustrator 19.0.0, SVG Export Plug-In . SVG Version: 6.00 Build 0)  -->
<svg version="1.1" id="Layer_1" xmlns="http://www.w3.org/2000/svg" xmlns:xlink="http://www.w3.org/1999/xlink" x="0px" y="0px"
	 viewBox="0 0 81.9 57.9" style="enable-background:new 0 0 81.9 57.9;" xml:space="preserve">
<style type="text/css">
	.st0{fill:#E3E3E3;}
</style>
<g>
	<path class="st0" d="M45.8,26L40.2,25l-0.5,1.3l0,0l-1.8,4.3c-0.2-0.2-0.6-0.4-1-0.4c-0.7,0-1.2,0.4-1.2,0.9c0,0.5,0.6,0.9,1.2,0.9
		c0.5,0,0.9-0.2,1.1-0.5l0,0l0,0c0-0.1,0.1-0.1,0.1-0.2l2-4.9l4.6,0.7L43,31.5c-0.2-0.2-0.6-0.4-1-0.4c-0.7,0-1.2,0.4-1.2,0.9
		c0,0.5,0.6,0.9,1.2,0.9c0.6,0,1-0.3,1.1-0.7l0,0l2.1-5l0,0L45.8,26z"/>
</g>
</svg>
