<?xml version="1.0" encoding="utf-8"?>
<!-- Generator: Adobe Illustrator 19.0.0, SVG Export Plug-In . SVG Version: 6.00 Build 0)  -->
<svg version="1.1" id="Layer_1" xmlns="http://www.w3.org/2000/svg" xmlns:xlink="http://www.w3.org/1999/xlink" x="0px" y="0px"
	 viewBox="0 0 612 792" style="enable-background:new 0 0 612 792;" xml:space="preserve">
<style type="text/css">
	.st0{fill:#E4E4E4;}
	.st1{fill:#E6E6E7;}
	.st2{fill:#FCFCFC;}
	.st3{fill:#FBFCFC;}
	.st4{fill:#F6F7F7;}
	.st5{fill:#F9FAFA;}
	.st6{fill:#EFF0F1;}
	.st7{fill:#F2F4F5;}
	.st8{fill:#F0F2F2;}
	.st9{fill:#F0F1F2;}
	.st10{fill:#F2F3F4;}
	.st11{fill:#F1F2F3;}
	.st12{fill:#E7E8E8;}
	.st13{fill:#E6E7E7;}
	.st14{fill:#E5E6E6;}
	.st15{fill:#F6F7F8;}
	.st16{fill:#E7E7E7;}
	.st17{fill:#E8E9E9;}
	.st18{fill:#EDEEEF;}
	.st19{fill:#ECEDED;}
	.st20{fill:#F3F4F5;}
	.st21{fill:#ECEDEE;}
	.st22{fill:#E5E5E5;}
	.st23{fill:#E6E6E6;}
</style>
<path class="st0" d="M1197.6,540.1c-1.1-24.6-7.8-48.3-11.9-72.4c-0.8-4.9-3.8-7.5-8.6-8.5c-6.4-1.3-12.7-3-18.9-4.8
	c-3.1-0.9-5.9-2.3-8-4.9c-3.2-4-7.4-4.9-12.1-3.6c-3.8,1.1-7.5,1.1-11.4,0.7c-6.3-0.7-12.5-2.1-18.6-3.8
	c-22.3-6.1-44.6-12.7-66.9-18.8c-49.7-13.7-98.7-29.3-147.6-45.6c-23.9-8-49-11.4-72.8-20c-1.9-0.7-4.2-1.1-5.3,1.2
	c-1.1,2.1,0.3,3.8,1.7,5.3c2.6,2.8,6,4.1,9.5,5.3c15.8,5.3,31.6,10.6,47.4,15.8c6,2,12.1,3.8,18,6.2c3,1.2,6.2,2.4,7.7,5.8
	c-1.9,0.8-3.3,0-4.6-0.6c-14.5-6-29.5-10.6-44.4-15.3c-24.7-7.7-49.4-15.1-74.8-20.1c-22.6-4.5-44.7-10.9-66.2-19.2
	c-27.1-10.4-54.9-17.6-83.5-22c-12.4-1.9-25.1-1.9-37.6-4.4c-27.8-5.6-55.7-10.2-82.2-21c-6.7-2.7-14-3-21.2-2
	c-5.8,0.8-11.6,0.8-17.4-0.3c-5.1-1-10.3-1.9-15.4-0.8c-5.3,1.1-9.7-0.3-14.3-2.8c-25.3-13.5-52.8-19.4-80.9-22.5
	c-18.4-2-36.9-2.6-55.1-6.2c-16.4-3.2-32.4-7.7-48.8-11c-31.5-6.5-63.4-10.7-95.1-15.9c-32.9-5.4-65.5-12.5-98.5-17.3
	c-23.1-3.4-46.3-6.1-69.1-11c-25.4-5.5-51-10.1-76.9-12.8c-4.9-0.5-10-0.8-14.6-3c-1.1-0.5-2.8-0.9-2.4-2.7c0.4-1.5,1.8-1.8,3.2-1.9
	c0.8-0.1,1.7,0.1,2.5,0.2c28.7,2.2,57.5,4,86.1,7.7c55.7,7.1,111.2,15.5,166.2,26.9c2.9,0.6,5.9,1.2,8.9,1.5c3.5,0.4,7,0.5,10.4-0.5
	c1.7-0.5,4-0.9,3.9-3.2c-0.1-2-2.2-2.3-3.7-2.7c-2.3-0.6-4.6-0.9-6.9-1.4c-34.2-7.2-67.8-17.8-103.1-19c-3.8-0.1-7.5-1.4-11-3
	c-1-0.5-2.5-0.8-2.1-2.3c0.3-1.4,1.7-1.4,2.9-1.5c3.3-0.3,6.7-0.5,10,0c9.3,1.3,18.6,0.7,28,0.8c2.7,0,5.3-0.1,8,0.2
	c19.1,1.7,38.2,2.5,57.3,3.7c22.6,1.4,45.2,2.9,67.8,4.4c28.1,2,56.1,4.2,84.1,6.6c25.2,2.1,50.4,4.3,75.6,6.5
	c26.4,2.3,52.8,4.5,79.1,6.5c24.7,2,49.4,4,74.2,5.4c23.6,1.4,47.2,2.5,70.8,3.5c20.5,0.9,40.9,1.9,61.4,2.4
	c7.6,0.2,15.3,0.5,22.9,1c19.9,1.2,39.9,2.5,59.8,2.8c34.7,0.6,69.2-1.3,103.7-4.7c28.1-2.8,55.8-7.5,82.9-15.5
	c4.4-1.3,8.3-3.3,12.1-5.9c7.5-5,12.5-12.4,18.4-18.9c3.6-3.9,4.6-8.1,3.8-13.3c-1.7-11.2-5.5-21.6-10-31.8
	c-6.1-13.9-13.2-27.3-16.6-42.3c-0.7-3.3-3.1-5-6.1-6.1c-6.1-2.4-12.3-4.3-18.3-6.8c-7.8-3.2-15.8-3.9-24-2.6
	c-12.9,1.9-25.9,1.9-38.9,1.1c-24-1.4-47.6-5.4-71.5-8.3C734.9,70.1,681,61.5,627.1,53.8c-58.7-8.4-117.2-18.1-175.9-27.2
	c-16.1-2.5-32-6.7-48.2-8.9c-6.1-0.8-12.6-1.6-17.2,2.9c-7.8,7.7-16.3,7.6-25.6,4.4c-1.1-0.4-2.3-0.5-3.4-0.7
	c-6.3-0.9-11.1-3.9-15.1-8.9c-6.1-7.6-14.4-11.7-24-13c-11.1-1.4-22.1-3.2-33-5.4c-11-2.2-22.1-3.7-33.3-2.6
	C242-4.7,233-6,224.5-9.7c-15.2-6.7-30.2-5.9-45.2-0.3c-4.4,1.6-7.2,1.2-9.3-3.2c-2.5-5.3-6.9-7.5-12.8-8.2
	c-10.9-1.2-21.8-2.9-32.7-4.4c-28.5-4.1-57.2-6.5-85.9-9.3c-25.4-2.5-50.7-5.3-76-8.7c-44.3-6-88.3-13.2-131.9-23.4
	C-207.2-76-245-84.4-284.2-83.8c-4.2,0.1-8-1.2-10.8-4.3c-2.5-2.7-5.5-4.2-9-4.8c-2.3,0-4.7,0-7,0c-6.7,0.8-11.6,4.5-16.1,9.1
	c-3,3.1-5.9,6.3-8.8,9.6c-8.5,9.6-9.9,20.3-5.5,32.1c7,19.1,13.8,38.3,20.9,57.3c3.5,9.4,9,17.4,16.2,24.4c5.7,5.6,12.7,9,20.6,8.9
	c8.2-0.1,16.6-1.7,23.4-6.3c15.9-10.9,33.6-12.2,51.4-9.7c56.7,8.2,113.4,16.9,169.7,27.9C-13,65.5,13.4,69,40,71
	c17.1,1.3,34.2,2.3,51.3,4.2c36.8,4.1,73.4,9.4,110.1,13.9c3.1,0.4,6.2,1.1,8.9,3c-0.6,0.6-1.1,0.5-1.6,0.5
	c-19.9-1.8-39.9-2.1-59.8-3c-25.3-1.1-50.6-2.1-75.8-3.1c-16.3-0.7-32.6-1.3-48.9-1.9c-22.5-0.8-44.9-1.6-67.4-2
	c-37.6-0.6-75.3-0.5-112.9,1.6c-22.8,1.3-45.6,1.3-68.4,2c-20.8,0.6-41.7,1.5-62.2,4.6c-56.8,8.6-114.2,12.8-171,22.1
	c-6.2,1-12.6,0.9-18.9-0.5c-2.8-0.6-3.3-1.8-1.2-4c2.4-2.4,5.3-3.3,8.6-3.4c5.8-0.2,11.7,0.1,17.5-0.1c7.9-0.2,15.6-1.8,22.3-6.3
	c2.2-1.5,5.3-3.1,4.6-5.9c-0.8-3.1-4.4-2.3-7-2.3c-13.1-0.1-25.9,2.1-38.6,4.6c-16.7,3.2-33.3,7.2-50.2,9.1
	c-11.5,1.3-20.9,6.3-29.1,14.1c-21.3,20.3-10,42,5.3,55.7c3.2,2.9,6.7,2,9.5-1.6c1.4-1.9,2.5-3.9,4.1-5.7c6.6-7.2,12.1-6.7,17,1.7
	c4.3,7.3,6.4,15.3,8.6,23.4c0.6,2.3-0.3,3.4-2.6,3.8c-4.8,0.8-9.6,1.1-14.4,2c-3.3,0.6-5.6,2.1-6,5.7c-0.6,5.7-0.4,11.4,2,16.7
	c2.7,5.8,7,9.2,13.6,9.2c3.3,0,6.7,0.3,10-0.1c20.3-2.3,40.6-0.3,60.8,1.5c38.5,3.4,76.9,7.7,115.4,10.9c38.2,3.2,76.3,6.9,114.4,11
	c43.2,4.6,86.3,10.3,129.4,16.2c50.2,6.9,100.1,15.4,150,24.2C171,311,274.5,329.2,377.4,351c61.9,13.1,124.4,23.8,186.1,38
	c3,0.7,6,1.4,9.6,3.1c-8.3,0.4-15.6,0.5-22.9-0.6c-20.4-3.1-40.9-5.8-61.3-8.9c-47.6-7.4-95.6-12-142.9-20.8
	c-8.4-1.6-16.9-2.2-25.3-0.5c-3,0.6-7.4,1.1-7.5,4.7c-0.1,4,4.4,3.8,7.3,4.4c17.1,3.7,34.5,5.7,52,6.7c4.6,0.3,9.1,0.8,12.7,4.8
	c-1.4,0.5-2.4,0.3-3.4,0.2c-45.3-5.9-90.5-11.7-135.8-17.5c-26.6-3.4-53.2-6.7-79.9-9.1c-34.5-3.1-68.9-7-103.4-10.8
	c-14.7-1.6-29.6-3.7-44.3-2c-17,2-32.5-3.4-49.7-6.8c5.9-3.5,11-4.5,16.6-2.7c17.8,5.8,36.1,7.9,54.7,5.6c7.8-0.9,15.5-1.9,23.1-4.3
	c1.4-0.4,3.1-1.1,3.1-2.8c0-1.8-1.9-2-3.3-2.5c-1.4-0.5-2.9-0.7-4.4-0.8C41,327.3,24,325.3,6.9,324c-32.6-2.6-65.1-4.3-97.8-3.8
	c-1.7,0-3.3,0-5,0.2c-2.4,0.3-4.7,1.1-5.5,3.7c-0.8,2.9,1.3,4.6,3.4,6.1c3.3,2.3,7.1,2.7,11,2.6c9.4,0,18.8-0.4,29,2.6
	c-13.3,1.3-25.9,1.6-38.3,1.6c-44.8-0.1-89.6,1-134.5-0.6c-27.1-1-54.3,0-81.4,1.6c-28.5,1.7-56.7,5.6-84.8,10
	c-39,6.2-76.5,17.9-113.5,31.6c-11.5,4.3-23.6,7.2-34.6,12.9c-18.3,9.4-21.5,16.4-16,36.2c1.4,5,2.9,9.9,3.3,15.1
	c0.3,4.4-1.2,7.7-4.9,10.2c-3.2,2.1-6.5,4.1-9.5,6.5c-4.2,3.4-7.2,7.5-7.5,13c-1,19.7,5.6,36.2,20.3,49.5
	c11.8,10.7,25.4,18.1,40,24.1c28.7,11.8,58.4,20.7,88.1,29.6c4.3,1.3,8.8,2,13.3,1.8c1.8-0.1,4-0.1,4.8-2c0.7-1.7-0.7-3.1-1.7-4.4
	c-1.3-1.7-2.9-3.3-4-5.2c-1.1-1.9-0.4-2.8,1.6-3c1.7-0.1,3.3,0.4,4.9,0.9c6.4,1.8,12.7,3.9,19.1,5.8c35.2,10.2,70.7,19.5,106.1,29
	c31.2,8.4,62.4,17,94,24.1c55,12.3,110.1,23.8,165,36.5c10.2,2.4,20.6,4.1,29.7,10c1.4,0.9,3.1,1.5,4.8,1.2c4-0.6,7.1,1,9.9,3.6
	c4.1,3.7,8.6,4.7,13.9,2.9c4.8-1.6,9.9-2,14.8-0.7c13.4,3.6,27.2,4.9,40.6,8.5c4.6,1.3,8.8,2.9,11.9,6.8c1.4,1.7,3,3.3,5.1,3.8
	c9.4,2.3,18.4,7,28.7,3.6c4.4-1.4,8.7-0.4,12.4,3.2c4.4,4.2,9.9,6.7,15.9,8.1c9.2,2,17.9,5.3,26.1,9.8c7.5,4.1,15.4,7.2,23.6,9.4
	c47.8,12.2,96,22.5,144,34.1c26.9,6.5,54.1,11.6,80.2,21.1c16,5.8,31.8,11.6,49.1,12.8c11.8,0.8,21.5,7.6,30.8,14.5
	c0.9,1,2,1.8,2.8,2.8c1,0.9,2.4,1.2,3.5,1.8c12.2,6.6,25.5,10.5,38.5,15.2c28.4,10.3,53.9,26.2,79.7,41.5c2.2,1.3,4.2,3,5.1,5.3
	c1.9,4.5,5.4,6.5,9.9,7.1c3,0,6,0,9,0c3.6-0.1,4.6-2.6,5.1-5.6c0.7-3.6,0.7-7.3,0.3-10.9c-1.2-12.6-2.2-25.2-3.8-37.7
	c-1.5-11.5-2.6-23.1-6.2-34.3c-4.2-13-12-23.2-24.9-28.3c-10.4-4.1-20.7-8.1-30.8-12.9c-1.8-0.5-3.5,0-5.1,0.8
	c-3.1,1.7-5.5,0.9-7.6-1.8c-1.9-1.2-4-2.2-5.9-3.2c2.3-0.3,5.6,0.1,3.6-4.3c-2-1.7-4.4-2-6.6-0.9c-3.8,1.9-7,0.6-10.5-0.7
	c-22.6-9-44.6-19.4-66.8-29.3c-48-21.4-96.9-40.5-147.4-55.1c-40.8-11.8-82.3-21.1-123.8-30.2c-38.7-8.5-77.2-18.2-116.1-25.8
	c-17.7-3.5-35.3-7-52.8-11.2c-21.6-5.1-43.1-10.6-65.2-13c-7.6-0.9-15.1-2.3-22.5-4.7c-5.1-1.6-10.3-2.9-15.5-4
	c-34.9-7.2-69.9-14.3-104.7-21.9c-45.8-10-91.4-20.3-136.9-31.4c-52.5-12.7-104.9-25.7-156.3-42.4c-3.5-1.1-6.9-2.6-10-4.6
	c-3.1-2-3.1-4-0.1-6.2c1.1-0.8,2.3-1.3,3.6-1.7c19.3-5.7,38.6-11.7,58.5-15.2c37.6-6.6,75.4-11.9,113.1-17.9
	c10-1.6,20.3-2.2,29.9-5.7c8.1-3,16.1-3.4,24.5-1.3c6.5,1.7,13.5,2.3,19.7-0.7c15.6-7.5,32.1-7.1,48.6-6c24.4,1.7,48.7,5,73.2,5.6
	c7.3,0.2,14.7,0.8,22-0.4c16.4-2.8,32.9-2.8,49.3-1.3c21.4,2,42.8,3.2,64.4,2.8c2.8-0.1,5.7,0.2,8.5,0.6c23.7,3.6,47.4,7.5,71.3,9.9
	c16.7,1.7,33.7,2.9,49.7,8.2c13.5,4.4,26.7,7,40.6,3.4c1.3-0.3,2.7-0.1,4-0.2c12.6-0.7,24.8,2.1,37.2,4c11.8,1.8,23.5,5.9,35.5,4.8
	c12.7-1.2,24.9,0.6,37.1,3.4c29.5,6.7,59.4,10.4,89.3,13.9c17.7,2.1,35.4,4.2,52.7,8.7c18.5,4.9,37.3,9,56.1,12.3
	c22.6,4,45.3,8,68.3,9.1c13.1,0.6,26.3,1,39.3,2.7c11.7,1.6,23.4,2.7,35.3,3.3c15.2,0.7,29.5,4.9,43.6,10.4
	c11.9,4.7,24.1,7.4,36.9,8.6c14.1,1.3,28.2,2.5,42.2,4.3c38.8,5.1,77.4,11.7,116.2,16.9c25.1,3.4,50.3,6.2,75.2,10.8
	c26.8,4.9,53.8,7.4,80.9,8.5c16.7,0.7,33.2,1.7,49.6,4.8c4.9,0.9,10,0.6,15,0.2c12.2-1.1,24-3.8,35.8-6.6
	c9.7-2.3,17.2-7.1,19.2-17.8c0-3,0-6,0-9C1197.8,540.7,1197.6,540.4,1197.6,540.1z M96.3,102.8c0.7-2.6,2-3.6,5.1-3
	c11.5,2,23.1,3.6,34.6,5.3c-11.9,5.7-24,6.5-36.4,3C97,107.3,95.5,105.6,96.3,102.8z M24.7,107.6c-17,3.8-33.1,4.6-49.9-3.1
	C-5,94.9,10.1,94.1,24.7,107.6z M-76.1,105.4c0.7-2.2,2.2-3.7,4.9-3.3c1.1,0.2,2.4,0.4,3.3,1.1c1.2,0.8,4,0,3.1,2.7
	c-0.6,1.9-2,3.5-4.6,3.2c-1.1-0.3-2.3-0.5-3.3-0.9C-74.1,107.7-77,108.5-76.1,105.4z M-140.4,113.4c-2.6-1.2-5.2-2-8.2-0.7
	c-12.8,5.2-26.1,1.8-39.2,1.8c-10.8-0.1-21-4.8-31.9-4.4c-4,0.2-8,0.5-11.9,1.1c-6,1-7.6,5.5-3.8,10.2c0.6,0.8,1.5,1.5,1,2.6
	c-0.8,1.6-2.2,0.7-3.5,0.6c-20.3-1.9-40.3-7-60.8-5.5c-18,1.4-36,3.7-54.2,2.8c-10.7-0.5-21.4-1-32-3.5c7.5-2.7,15.2-4,23-5.3
	c14.5-2.4,29.1-4.9,43.7-6.6c11.7-1.4,23.3-3.2,35.1-3.5c5.9-0.1,11.6,0.8,17.3,2c11.1,2.3,21.8-0.4,32.5-2.4
	c13.9-2.6,27.7-4.9,42-4.6c19.3,0.3,38.6-0.8,57.9-1.3c10-0.2,20.3,0.1,30.3-1.6c5.1-0.9,8.4,1.8,11.1,6c1.8,2.9,1.5,5.7-0.9,7.1
	c-5.3,3.2-4.6,5.4,1.9,7.9C-108.9,119.9-124.9,120.6-140.4,113.4z M528.8,754c-4-1.3-6.7-2.9-9.5-5.6
	C524,747.6,526.7,749.2,528.8,754z M-464.8,552.4c-0.4-0.5-1.1-1.1-0.5-1.7c0.5-0.5,1.5-0.8,2.2-0.7c8.5,0.8,16.9,1.7,23.3,8.2
	C-448.2,562.3-458.8,559.9-464.8,552.4z M-448.1,484.2c29.2,12.8,60.1,20.6,90.6,29.4c33.1,9.5,66.2,19,99.7,26.5
	c28,6.3,56.2,11.8,84.3,17.8c29.2,6.2,58.5,12.4,87.7,18.7c25.8,5.5,51.9,9.4,77.7,15.1c25.6,5.7,51.2,11.6,76.7,17.7
	c43,10.1,86.3,18.7,129.5,27.8c39.8,8.4,79.6,17.2,118.3,29.9c15.7,5.1,32,7.3,47.8,12c17.6,5.3,34.5,12.1,51.6,18.7
	c10.2,3.9,20.6,7.5,31,11.2c7.1,2.6,13,6.8,17.3,13c0.8,1.2,2.5,2.8,1.2,4.4c-1.1,1.3-2.8,0.1-4.2-0.3c-14-4-26.8-10.8-40.2-16.3
	c-29-12.1-58.5-22.9-88.7-32c-27.7-8.4-55.8-15-84.2-20.3c-17-3.1-34.2-4.6-50.9-9.1c-26.3-7-52.6-14.4-79.1-20.6
	c-27-6.4-54.1-12.2-81.6-15.5c-29.3-3.4-57.8-10.5-86.5-16.6c-15.7-3.3-31.6-5.9-47.5-8.3c-17.6-2.6-34.4-8.9-51.4-14.1
	c-26.7-8.2-54-14-81.2-20.2c-24.5-5.5-48.9-10.9-73.4-16.3c-48.7-10.6-96.3-24.7-143.4-40.8c-7.1-2.4-14.3-4.4-21.5-6.5
	c-3.7-1.1-7.2-2.6-9.8-5.6c-3-3.6-2.7-4.8,1.8-6c1.5-0.4,3.3-0.7,4.8-1C-463.2,478-455.5,481-448.1,484.2z M-283.8,362.4
	c-10.5-1.3-21.3-0.4-31.8,1.1c-17.9,2.7-35.7,5.7-53.5,8.7c-3.2,0.5-6.5,1-9.1,3.6c-3.9,3.8-3.7,5.6,1,8.2c0.7,0.4,1.4,0.8,2.2,1.2
	c-3.3,1.9-9.9,3.2-14.7,1.6c-12.9-4.2-25.5-3.2-38.2,0.5c-6.2,1.8-12.6,0.1-18.8,1.7c-12.6,3.4-23.9,8.9-33.3,18.1
	c0.2,0.8,0.1,1.3-1,0.9c-11.8-0.8-23.1,0.7-33.9,6.2c-6.8,3.4-11.9,1.4-15.5-4.1c-1.7-2.7-1.4-4.3,1.3-6.1
	c9.7-6.7,20.6-10.8,31.7-14.3c20.4-6.5,41.1-12.2,62-17c26.5-6.1,53.3-10.9,80.2-14.8c18.7-2.7,37.5-4.7,56.2-6.7
	c9.1-1,17.7,2.5,26.4,4.6c1.9,0.5,3.8,1.1,7,2.1C-272.3,360.2-277.1,363.2-283.8,362.4z M-151.2,354.5c-3,4.9-8.7,7.3-15.8,5.2
	c-14.3-4.1-28.5-2.6-42.9-0.9c-7.1,0.8-14.2-0.8-21.1-2.4c-1.5-0.4-3-1.1-3.1-3.1c7.1-1.9,14.4-2.7,21.6-3.2
	c17.8-1.3,35.7-2,53.6-2.8c2.7-0.1,5.1,1.2,7.5,2.5C-148.9,351.2-150.3,352.9-151.2,354.5z M-64.2,356.8c-0.7-2.7,2.2-4.6,4.8-5.4
	c1.3-0.5,2.9-0.4,4-0.5c2.7,0.3,6.1-0.6,6.5,1.9c0.4,2.2-2.9,3.6-5.1,4.6c-1.2,0.6-2.6,0.7-3.8,1C-60.3,359.2-63.6,359.2-64.2,356.8
	z M-28.8,387.6c-1.4,0.1-2.7-0.8-2.4-2.4c0.2-1.2,1.3-2.1,2.6-1.8c1.2,0.2,2.6,0.6,3,2.2C-26.2,387-27.5,387.5-28.8,387.6z
	 M-13,409.2c-1.5,1.1-2.8-0.2-4.6-0.7c1.7-1.7,2.9-2.7,4.6-1C-12.6,408.1-12.4,408.8-13,409.2z M-5.3,378.8c-13.6-1.9-27.5,1-41-2.7
	c-3.5-0.9-7-2-10.5-3c0-0.4,0-0.7,0-1.1c15.3,0,30.5,0,45.8,0c3.6,0,5.2,2.7,7.1,4.9C-2.7,378.3-3.7,379-5.3,378.8z M-7.4,363.9
	c-4.7,0.5-9.3,1.7-14,1c-4.9,0.8-9.6-0.6-14.4-1.1c-3.1-0.3-6.3-1.3-8-4.5c-1-1.8-2.9-3.8-1.8-6c1.2-2.5,4-1.5,5.9-1.2
	c10.7,1.5,21.5,1,32.2,2.8c3.2,0.6,5.4,1.9,5.5,5.3C-2,363.9-5.1,363.6-7.4,363.9z M80.7,368.8c0.1-1,1.3-1.3,2.2-1.6
	c0.8-0.2,1.7,0,1.6,1.1c-0.2,1.1-1.1,1.5-2.2,1.6C81.6,369.8,80.5,369.9,80.7,368.8z M59.9,363c1.1,0,2.1,0.2,2.4,1.3
	c0.2,0.7-0.4,1.3-1.1,1.3c-1.1,0-2.3-0.3-2.6-1.6C58.4,363.2,59.4,363.2,59.9,363z M45.8,380c9.2-3.1,18.2-2.3,28.4,0.7
	C64,384.1,54.9,383,45.8,380z M86,395.5c-1.5,5-0.6,10.2-1.5,15.3c-0.6,3.8-2.3,4.6-5.6,4.3c-2.2-0.3-4.4-0.1-6.5-0.1
	c-10.7,0-10.9,0-12.1-10.5c-0.6-4.9-0.8-9.9-1.8-14.7c-0.5-2.5,0.8-3,2.8-2.5c7.4,1.6,14.8,3.3,22.3,4.7
	C85.8,392.4,86.5,393.8,86,395.5z M135.3,372.8c-2.2-0.8-5.4-0.3-5.9-3.5c-0.3-1.8,1.4-1.8,3.5-1.3c1.4,0.6,4.8-1.3,5.3,2.4
	C138.4,372.1,137.1,373.5,135.3,372.8z M158.2,403.9c-2.2,0.1-6.5,1.3-6.4-1.2c0.1-3.4,4.3-0.8,6.4-1.9c2.4,0.7,6.7-1,6.6,1.4
	C164.7,405.6,160.5,403.8,158.2,403.9z M149.7,393.2c-1.2,0.1-2.6-1.1-2.5-2.6c0.2-2,1.9-1.7,3.1-1.2c4.5,1.6,9.4-0.3,15,1.6
	C159.8,393.9,154.6,393,149.7,393.2z M257.3,411.4c-1,3.8-3.7,4.6-7.6,4.6c-2.3,0.3-3.9-0.2-2.1-3.4c1.4-2.5,2.1-5.2,2.5-8
	c0.4-2.7,2.3-3.2,4.3-1.5C256.9,405.2,258.5,407.7,257.3,411.4z M378.9,431c-3.8,0.8-7.7,1.6-11.6,2.4c-4.9-0.1-8.6-2.9-12.4-5.2
	c-2.9-1.7-5.5-3.2-9.1-3.4c-5.9-0.3-9.1-6.8-6.7-12.3c0.6-1.5,1.6-1.4,2.8-1.1c10.5,2.5,20.9,5,31.4,7.5c4.9,1.1,5.9,5.4,7.4,9.2
	C381.3,429.5,380.6,430.7,378.9,431z M392.6,385.5c6.4-4,12.5-2.4,20.1-0.8C405.4,389.3,399.3,388.5,392.6,385.5z M438.8,443.7
	c-1.2-0.4-2.9-0.6-3-2c-0.2-1.6,1.5-2.1,2.7-2.1s2.8,0.4,2.8,2.1C441.2,442.8,440.1,443.5,438.8,443.7z M451.6,392.9
	c-1.3-0.2-2.9-0.4-3-2c-0.1-1.7,1.5-1.9,2.9-1.8c1.4,0.1,2.4,1,2.9,2.3C453.9,392.9,452.7,393.1,451.6,392.9z M469.7,397.2
	c4.2-3.9,5.9-3.7,9.4,0.7C475.9,397.8,472.8,398.6,469.7,397.2z M528.5,401.6c-1.7,2.7-4.3,3.5-7.8,3.4c-2.3-0.5-6.3-0.2-6.8-3
	c-0.4-2.2,3.5-3.3,5.9-4.4c2.8-1.2,5.5-0.9,8,0.9C528.8,399.3,529.2,400.5,528.5,401.6z M547.2,409c-0.6-0.4-1-1.1-0.6-1.6
	c1.6-2.1,3.6-1.6,6.4-0.7C551,408.6,549.8,410.6,547.2,409z M610.7,415c-0.5,0-1,0-1.5,0c-1.9-0.2-4.8,0-4.7-2.5s2.9-1.2,4.5-1.5
	c0.6-0.1,1.3,0,2.4,0c1.8,0.7,5.8-1.4,5.9,1.5C617.4,415.2,613.2,414.9,610.7,415z M653.4,419.4c-0.2,1.8-2.2,1.5-4,1.6
	c-1.8-0.6-4.3-0.2-5.9-2.2c-0.2-0.2,0.1-1.1,0.4-1.2c2-1.1,4.2-0.7,6.2-0.3C651.3,417.6,653.6,417.4,653.4,419.4z M688.6,427.8
	c-1.6,0.2-3.1-1-3.2-2.5c-0.1-2.3,2.2-2.5,3.8-3.2c2,0.3,4,1.5,3.8,3.2C692.8,427,690.4,427.6,688.6,427.8z M907.2,402.4
	c5.1-2.1,10.1-2,15,0.7C917.3,402.7,912.2,403.1,907.2,402.4z M937.9,411.1c-0.2,1.4-0.9,1.9-2.4,1.6c-3.2-0.5-9.1-4.9-8.7-6.6
	c0.6-2.1,2.5-1,3.7-1.1c3.5-0.1,6.5,1.1,7.3,4.5C937.9,410.4,938,410.7,937.9,411.1z"/>
<path class="st1" d="M-584,431c1.5-1.1,0.9-3.6,3.6-4.7c2.5,8.6,4.9,17,7.5,25.7c-4.6-2.2-5.5-3.3-11-14
	C-584,435.7-584,433.3-584,431z"/>
<path class="st2" d="M-481,408c0.3-0.3,0.6-0.6,0.9-0.9c3.1-0.1,5.6-2,8.5-2.8c1.3-0.4,2.7-2,4-0.4c1,1.2,0.7,2.9,0.2,4.3
	c-0.6,1.7-2,3.1-3.8,2.6C-474.4,410-478.1,410.4-481,408z"/>
<path class="st3" d="M587,750c1.8,0.4,3.6,0.7,5,2c-0.7,1.6-1.6,3.1-2.5,4.6c-0.2,0.1-0.4,0.3-0.5,0.4c-3.8,0.3-5.9-2.9-9.3-4.1
	C582,750.7,585.8,753.9,587,750z"/>
<path class="st4" d="M599,756c0.7,0.7,1.3,1.3,2,2c-1.7,0.1-3,1.2-4.5,1.9c-3.6,2-6.3,1.4-7.5-3l0,0
	C592.1,754.1,595.6,755.9,599,756z"/>
<path class="st5" d="M-433,396.3c3.8-1.9,6.8-3.4,10.3-3.9C-424.3,398-425.4,398.4-433,396.3z"/>
<path class="st6" d="M517,815c-2,0.8-4,1.7-6,2.4c-1.3,0.5-2.4,0-2.7-1.3c-0.4-1.5,0.7-2,2-2.1c1.6-0.2,3.4,0.4,4.7-1
	C515.7,813.7,516.3,814.3,517,815z"/>
<path class="st7" d="M222.4,94.5c4.2,0,8.4-2.8,14-0.5C231.1,95.7,226.7,94.7,222.4,94.5z"/>
<path class="st8" d="M-463.3,402c2.6,0,4.7,0,6.8,0c1,0,2.2,0.2,2.1,1.4c-0.1,1.6-1.5,1.7-2.6,1.3
	C-458.9,403.9-461.5,404.5-463.3,402z"/>
<path class="st9" d="M-408.9,392c-2.9,1.3-5,1.2-8.5-0.4C-413.9,390.9-411.8,390.6-408.9,392z"/>
<path class="st9" d="M-30.4,609.6c1.8-0.9,2.8,0.1,3.5,1.5c0.1,0.1-0.2,0.7-0.4,0.7C-28.7,611.7-30.2,611.5-30.4,609.6z"/>
<path class="st10" d="M420.4,457.2c0.3-0.8,0.8-0.9,1.5-0.6s1.7,0.5,1.5,1.6c-0.1,0.7-0.9,0.8-1.5,0.6
	C421.1,458.5,420.5,458.1,420.4,457.2z"/>
<path class="st11" d="M-180.8,402.3c0.2-0.8,0.7-1.1,1.4-1c0.4,0.1,0.9,0.8,0.9,0.9c-0.3,0.5-0.7,1.2-1.2,1.3
	C-180.5,403.7-180.8,403-180.8,402.3z"/>
<path class="st10" d="M-204.1,122.6c-0.7,0.6-1,1.1-1.3,1.1c-0.6,0-1.5-0.1-1.7-0.4c-0.5-0.7,0.2-1.2,0.9-1.2
	C-205.7,122.1-205.1,122.4-204.1,122.6z"/>
<path class="st0" d="M-208.6,317c13.7,0,24.2-0.5,34.7,0.1c14.1,0.8,28.3,0.8,42.4,0.8c1.9,0,3.6,0.4,4.9,1.9c0.9,1,1.8,2.1,1.2,3.5
	c-0.5,1.2-1.7,1.5-2.9,1.6c-0.5,0-1,0-1.5,0c-22.3-0.5-44.6,1.7-66.9,1c-17-0.6-33.9,0.7-50.9,1.2c-20.4,0.6-40.7,2.3-61.1,3.9
	c-20.3,1.7-40.6,3.6-60.8,6c-27.2,3.3-54.1,7.8-80.9,13.7c-29.4,6.5-58.3,14.7-86.8,24.4c-11.1,3.8-21.8,8.3-29.9,17.3
	c-2.4,2.6-4.3,5.5-6,8.6c-1.3,2.3-3.2,3.5-5.8,2.7c-2.4-0.7-3.2-2.6-3.2-5c0.1-7.2,3.2-12.9,9.2-16.8c8.5-5.6,17.8-9.8,27.4-13.2
	c41.3-14.7,83.7-25,126.6-33.6c22.1-4.4,44.4-7.6,66.8-10.1c12.8-1.4,25.8-2,38.7-3.2c21.5-2,43-3.4,64.6-4.3
	C-234.3,317.1-219.9,317.7-208.6,317z"/>
<path class="st12" d="M116,340.5c-7.8-0.3-15.4,3.2-23.1,0.5c-1.1-0.4-2.7-0.4-3-1.5c-0.4-1.5,1.3-2,2.4-2.7
	c4.1-2.5,8.5-2.4,12.9-1.2C109,336.7,112.7,338,116,340.5z"/>
<path class="st13" d="M216,346.4c-5.5,2.2-10.9,4.4-16.7,4.6c-1.7,0-3.4,0.1-4.8-0.8c-1.1-0.6-2.9-0.7-2.7-2.4
	c0.1-1.2,1.7-1.4,2.8-1.8c5-1.8,10.2-1,15.3-0.8C211.9,345.3,213.9,346,216,346.4z"/>
<path class="st6" d="M451.4,806c-4.4-1.1-9.5-0.8-13.3-4.3c-0.9-0.8-3.1-0.9-2.1-2.7c0.8-1.5,2.7-1.1,4.1-0.7c0.9,0.3,1.9,1,2.3,1.8
	c1.8,4.5,5.1,4.5,9,3.3c1.3-0.4,2.6-0.8,3.8,0.2c0.2,0.2,0.3,1,0.1,1.3C454.3,806.2,452.9,805.9,451.4,806z"/>
<path class="st14" d="M289.9,360.9c-1.5,0-2.5,0-3.5,0c-1.6,0-2.4-0.8-2.4-2.5c0-1.6,0.9-2.5,2.4-2.4c1.3,0.1,2.7,0.1,3.8,0.6
	c1.7,0.8,5.4-1,5.2,2.1C295.3,362.3,291.6,360.4,289.9,360.9z"/>
<path class="st15" d="M406,792c-4.4-2.7-9.3-1.9-14-2c-1.3,0-3.5,0.7-3.5-1.6c0-1.8,2-1.5,3.2-1.3c4.8,0.6,10-0.2,14.3,2.9
	C406.1,790.7,406.7,791.3,406,792z"/>
<path class="st16" d="M-260.2,72.4c7.1,0,14.2,0,21.4,0c0,0.3,0,0.7,0,1c-7.1,0-14.2,0-21.4,0C-260.2,73.1-260.2,72.7-260.2,72.4z"
	/>
<path class="st17" d="M82.8,341.6c-8.7-1.1-11.7-3.3-12.6-9C75,334.8,78.5,338.2,82.8,341.6z"/>
<path class="st18" d="M-367.8,86c-1.2-0.1-2.7-0.3-2.6-1.6c0.2-2.1,2.1-2.2,3.7-2.2c1,0,2.1,0.4,2,1.6
	C-364.8,85.6-366.2,86.1-367.8,86z"/>
<path class="st19" d="M406,792c-0.1-0.7-0.9-1.4,0-2c0.4,0.2,0.9,0.4,1.3,0.7c1.8,1.1,4.2,1.4,5,3.7c0.1,0.3-0.5,1.1-0.8,1.1
	C409,795.4,407.4,793.8,406,792z"/>
<path class="st20" d="M243.6,352.8c-2.3,1.4-4.1,1.7-5.9,0.4c-0.2-0.1,0-1.1,0.3-1.3C239.8,350.4,241.6,351,243.6,352.8z"/>
<path class="st21" d="M145.5,341.5c0-1.1,0.7-1.4,1.6-1.4c1.2,0,2.3,0.4,2.5,1.7c0.2,1.1-0.6,1.9-1.7,1.8
	C146.6,343.5,145.9,342.5,145.5,341.5z"/>
<path class="st18" d="M-215.4,72.5c0.9,0.1,1.2,0.6,1.2,1.3c0.1,0.9-0.1,1.8-1.2,1.7c-0.5,0-1.1-0.7-1.3-1.3
	C-216.8,73.3-216.1,72.8-215.4,72.5z"/>
<path class="st22" d="M599,756c-3.2,2-6.7,0.6-10,1c0.2-2.1-0.9-5.1,3-5C594.6,752.8,596.9,754.2,599,756z"/>
<path class="st0" d="M202.8,220.2c16.6,1.9,32.2,4.4,47.7,8c22.8,5.4,45.5,11.4,68.7,14.4c28.9,3.8,57.1,10.6,85.6,16
	c16.4,3.1,33.2,4.3,49.6,7.6c17.4,3.4,34.6,8.2,51.8,12.5c4.2,1,7.9,3.2,11.5,6.9c-4.7,0.7-8.7,0.9-12.7,0
	c-36.6-8.9-73.8-15.2-110.7-22.5c-23-4.5-45.9-9.3-68.9-13.6c-28.9-5.4-57.8-10.3-86.7-15.5c-8.3-1.5-16.6-3.1-24.9-5
	C209.4,227.9,205.7,225.2,202.8,220.2z"/>
<path class="st22" d="M813.7,358.6c-9.8,2-18.5-0.3-27-2.9c-17.3-5.4-34.5-11.2-51.7-16.9c-1.8-0.6-3.8-1.3-5.1-2.9
	C740.5,335,804.7,352.2,813.7,358.6z"/>
<path class="st22" d="M695,331c-16.2-5.1-31.7-12.2-48.1-17.1c8-1.9,15.7-0.3,23.3,1.4c6.6,1.5,13.1,3.7,19.6,5.4
	c4.4,1.1,6.5,3.7,6.2,8.2C696.6,330.1,696.8,331.1,695,331z"/>
<path class="st23" d="M621.8,310.1c-12.3-3-24.5-5.9-36.8-8.9C598.5,299.5,611.6,299,621.8,310.1z"/>
<path class="st13" d="M695,331c0.3-0.7,0.7-1.4,1-2c1.2,1.6,2.1,1.3,3.6,0.1c4.4-3.7,8.9-4.2,14.3,0.5
	C707.2,330.8,701.3,333.2,695,331z"/>
<path class="st12" d="M553.4,293.7c-6.9-0.7-12.7-1.3-19-1.9C541,286.5,545.6,286.8,553.4,293.7z"/>
</svg>
