<?xml version="1.0" encoding="utf-8"?>
<!-- Generator: Adobe Illustrator 19.0.0, SVG Export Plug-In . SVG Version: 6.00 Build 0)  -->
<svg version="1.1" id="Layer_1" xmlns="http://www.w3.org/2000/svg" xmlns:xlink="http://www.w3.org/1999/xlink" x="0px" y="0px"
	 viewBox="0 0 612 792" style="enable-background:new 0 0 612 792;" xml:space="preserve">
<style type="text/css">
	.st0{fill:#C1B49A;}
	.st1{fill:#C5B9A0;}
	.st2{fill:#D8D0BF;}
	.st3{fill:#D8D1C1;}
	.st4{fill:#FAF9F7;}
	.st5{fill:#F9F8F6;}
	.st6{fill:#FCFBFA;}
	.st7{fill:#E2DCD0;}
	.st8{fill:#E3DDD1;}
	.st9{fill:#F0EDE7;}
	.st10{fill:#F1EEE8;}
	.st11{fill:#D3CAB7;}
	.st12{fill:#FBFBFA;}
	.st13{fill:#E6E0D6;}
	.st14{fill:#CCC1AC;}
	.st15{fill:#DFD9CC;}
	.st16{fill:#FDFDFC;}
	.st17{fill:#E4DFD4;}
	.st18{fill:#EEEAE4;}
	.st19{fill:#DED6C9;}
	.st20{fill:#EEEBE4;}
	.st21{fill:#F2F0EB;}
	.st22{fill:#F5F3EF;}
	.st23{fill:#DFD8CC;}
	.st24{fill:#E7E2D8;}
	.st25{fill:#D4CBBA;}
	.st26{fill:#CCC2AD;}
	.st27{fill:#C1B49B;}
	.st28{fill:#C5B8A0;}
	.st29{fill:#C7BBA4;}
	.st30{fill:#C6BBA3;}
	.st31{fill:#C9BEA8;}
	.st32{fill:#D0C6B2;}
	.st33{fill:#EBE7DF;}
	.st34{fill:#CEC4B0;}
	.st35{fill:#C8BDA6;}
	.st36{fill:#DFD8CB;}
	.st37{fill:#C3B69D;}
	.st38{fill:#D7CFBE;}
	.st39{fill:#C1B59B;}
	.st40{fill:#C3B69C;}
	.st41{fill:#C5B9A1;}
	.st42{fill:#C9BDA7;}
	.st43{fill:#C9BEA7;}
</style>
<path class="st0" d="M1024.1,444.1c-0.6-0.3,0.2,0-0.4-0.3c-5.1-3-6.1-7.5-4.9-12.9c0.8-3.7,2.1-7.4,3-11.1
	c3.1-13.5,0.1-20.2-12.1-26.6c-4.6-2.4-9.3-4.5-14.2-6.1c-23.7-7.8-46.9-17.3-71.2-23.4c-48-12-97-16.8-146.3-18
	c-12.5-0.3-24.9,1.1-37.4,1.1c-30.8,0-61.7,0-92.5,0c-11.9,0-23.8,0.4-35-1.2c6.2-1.2,13.2-1.3,20.2-1.3c2.9,0,5.6-0.7,7.7-2.8
	c1.5-1.5,2.4-3.3,1.6-5.4c-0.7-1.9-2.3-2.8-4.3-3c-2.2-0.2-4.3-0.2-6.5-0.2c-27.3-0.7-54.6,1.1-81.8,3.2c-12.9,1-25.9,1.8-38.7,3.8
	c-1.8,0.3-3.7,0.3-4.7,2.2c-0.3,1.3,0.1,2.3,1,3.3c1.3,1.1,2.9,1.6,4.5,2c8.3,1.8,16.8,3,25.2,3c10.8,0.1,21.6-1.3,32-4.6
	c5.7-1.8,7.7-1.7,11.6,0.8c-12.4,2.3-23.8,6.5-36.3,4.7c-6.7-1-13.6-0.7-20.5,0c-14.7,1.5-29.5,3-44.2,4.6
	c-20.8,2.3-41.7,4.5-62.6,6.4c-21.9,1.9-43.7,4.7-65.5,7.6c-27.4,3.6-54.8,7.1-82.2,10.6c-7.7,1-15.4,2.2-23.2,2.5
	c3.4-1.8,7-2.2,10.6-2.4c13.3-0.6,26.5-2.4,39.6-5.2c2.4-0.5,5.4-0.9,5.6-4.1c0.2-3.2-2.8-3.7-5.1-4.6c-0.8-0.3-1.6-0.5-2.4-0.6
	c-6-0.2-12-0.8-17.9,0.4c-15.7,3.1-31.5,5.3-47.4,7.4c-34.3,4.6-68.6,9.5-102.8,14.5c-11.1,1.6-22.2,4.2-34,3.3
	c3.1-0.8,5.9-1.5,8.6-2.1c43.7-9.9,87.7-18.2,131.7-26.8c51.8-10.2,103.4-21.6,155.4-30.7c42.6-7.5,85.2-15.2,127.9-22.6
	c28.7-4.9,57.4-9.9,86.3-14.2c23.5-3.5,47.1-6.6,70.8-9.6c23.8-3,47.5-6,71.4-8.4c14.7-1.5,29.5-2.8,44.2-4.3
	c19.7-2,39.4-3.8,59.1-5.5c15.6-1.4,31.1-2.9,46.7-4.5c22.5-2.3,45-4.7,67.7-4.7c5.5,0,10.9,1.2,16.4,1c8.9-0.3,12.8-3.2,14.9-11.8
	c0.9-3.6,0.7-7.3,0.2-10.9c-0.3-2.6-1.9-4.1-4.5-4.6c-3.1-0.6-6.2-1.2-9.4-1.4c-2.7-0.2-4.6-1.5-3.9-4.5c1.4-6.7,3.5-13.3,7.5-18.9
	c3-4.1,7.1-4.1,10.6-0.4c1.4,1.4,2.3,3.2,3.5,4.9c2.9,4,6.3,4.4,10.1,1.1c2-1.8,3.9-3.6,5.6-5.7c8.5-10,10.4-22.4,4.2-32.4
	c-6.3-10.2-15.2-17.1-27.4-19.1c-15.3-2.4-30.5-5.5-45.7-8.3c-10.3-1.9-20.6-3.9-31.2-3.4c-2,0.1-4.2,0.3-4.8,2.7
	c-0.5,2.2,0.9,3.9,2.6,5c3.2,2.1,6.7,3.6,10.5,4.6c5.4,1.4,10.9,1.2,16.4,1.2c2.8,0,5.7-0.2,8.5,0.3c1.6,0.3,3.7,0.7,3.8,2.6
	c0.1,2.2-2.2,2.2-3.8,2.3c-4,0.3-8,0.4-12-0.3c-14.9-2.6-29.9-4.9-45-6.4c-26.2-2.5-52.3-5.8-78.3-9.7c-25.4-3.8-51-5.3-76.6-6.4
	c-10.6-0.5-21.3-0.4-31.9-0.8c-26.8-1-53.6-2.3-80.4-2.1c-16.5,0.1-32.9,0.9-49.4,0.8c-1.3,0-2.7,0-4,0.1
	c-21.6,1.7-43.2,1.5-64.8,2.7c-12.9,0.7-25.9,1.1-38.9,1.5c-9,0.3-18,0.3-26.9,1c-15.6,1.2-31.3,1-47.5,2.5c1.2-1,2.1-1,2.9-1.1
	c20-2.6,39.9-5.3,59.9-7.9c19.8-2.5,39.7-4.7,59.6-6.1c18.3-1.3,36.6-2.4,54.6-5.5c37.1-6.4,74-13.9,111.2-19.1
	c20.1-2.8,39.9-7.7,60.3-8.6c10.7-0.5,20.9,1.2,30.2,6.9c4,2.5,8.3,4.2,12.8,5.5c8.6,2.5,17,2,24.1-3.8c7.7-6.3,13.5-14.1,17-23.6
	c5.8-15.8,11.7-31.6,17.1-47.5c2.8-8.1,2.5-16.1-3.1-23.2c-2.7-3.4-5.4-6.8-8.4-9.9c-4-4.1-8.5-6.9-14.4-7.1c-2.3,0-4.6,0-6.9,0
	c-3,0.5-5.8,1.4-8.1,3.6c-2.2,2.1-5,2.6-7.9,2.5c-30.2-0.1-59.6,5.5-88.8,12.5c-32.4,7.8-65.2,13.5-98.2,18.4
	c-42.7,6.3-85.6,9.8-128.5,14.3c-16.5,1.8-33,4.2-49.5,6.8c-3,0.5-5.2,1.8-6.9,4.3c-4.1,5.7-4.2,5.7-11.1,3.4
	c-11.2-3.7-22.2-3.6-33.2,0.9c-7.4,3-15.1,4.9-23.4,3.7c-5.1-0.7-10.3-0.2-15.4,0.4c-12.1,1.5-23.9,4.5-36,5.7
	c-9.9,0.9-18.3,4.9-24.6,12.8c-2.3,2.9-5.3,4.5-8.8,5.2c-2.9,0.6-5.9,1-8.8,2c-5.2,1.7-9.7,0.9-13.8-2.8c-4.4-4-9.7-5-15.4-4.2
	c-3,0.4-6,0.7-8.9,1.3c-21.8,4.6-43.9,8-65.9,11.5c-37.5,5.9-75,11.9-112.6,17.2c-32,4.6-63.9,9.3-95.9,13.9
	c-27.2,3.9-54.5,7.1-81.7,10.5c-13,1.6-26.2,2.1-39.4,0.6c-6.7-0.8-13.6-2.4-20.3,0.2c-6.2,2.4-12.6,4.3-18.8,6.8
	c-3.5,1.4-5.9,3.5-6.7,7.3c-1.8,7.9-5.2,15.1-8.4,22.4c-4.4,10-9.3,19.9-11.9,30.7c-1.9,7.8-1.9,14.6,4.4,21.2
	c9,9.5,18.5,17.1,31.8,20.2c17.4,4,34.8,7.4,52.6,9.3c19.9,2.2,39.7,4,59.7,4.3c32.6,0.6,65.2-0.8,97.8-2.7
	c12.3-0.7,24.6-1.2,36.9-1.4c9.3-0.1,18.6-0.5,27.9-1.1c22.6-1.3,45.2-2.2,67.7-3.8c10.3-0.7,20.6-1.5,30.9-2.3
	c18.2-1.6,36.5-3.1,54.7-4.6c13.8-1.2,27.5-2.2,41.3-3.4c13.9-1.2,27.8-2.5,41.8-3.6c13.9-1.1,27.9-2.2,41.8-3.3
	c16.4-1.4,32.8-2.4,49.3-3.5c12.9-0.9,25.9-1.7,38.9-2.4c18.6-1,37.2-2.9,55.8-2.7c4.5,0,9-0.1,13.5-0.7c2.6-0.4,5.5-0.8,8.5,0.8
	c-2.5,2.6-5.4,2.5-8.1,3.2c-6,1.6-12.3,0.9-18.4,1.7c-20.6,2.6-40.5,8.2-60.6,12.7c-3.7,0.8-7.6,1.3-11.2,2.5
	c-1.5,0.5-3.4,1.2-3.1,3.3c0.2,1.9,1.8,2.8,3.5,3.1c3.8,0.6,7.6,0.6,11.4-0.1c6.7-1.2,13.2-3.5,20-4.5c26.5-4,52.9-8.7,79.4-12.9
	c20.9-3.3,41.9-5.8,62.9-7.8c15.6-1.5,31.2-2.5,46.7-3.9c1.4-0.1,3-0.6,4,1c-2.4,2.3-2.9,2.6-5.9,2.9c-2,0.3-4,0.2-6,0.5
	c-22.5,2.8-44.7,7.1-66.9,11.5c-25.8,5.1-52,8-78,12.2c-17.9,2.9-35.6,7.3-53.5,10c-26.3,4.1-52.7,7.8-78.8,13
	c-15,3-29.8,7.2-44.9,10c-16.1,3-32.5,2.7-48.6,5.2c-20.1,3-40.1,7.1-58.2,16.9c-4.4,2.4-8.7,3.7-13.8,3c-3.4-0.5-6.9,0-10.4,0.5
	c-4.1,0.6-8.2,1.7-12.4,1c-9.5-1.6-18.5-0.4-27.4,3.3c-6.9,2.9-14,5.4-21.4,6.9C92,326,69.4,331.3,46,333.3
	c-22.3,1.9-44.1,8.4-65.3,16.2c-19.2,7.1-38.7,13.4-58.8,17.6c-9.5,2-19,3.7-28.3,6.4c-22.8,6.8-45.8,13.2-68,21.8
	c-0.6,0.2-1.5,0.8-2.2-0.3c1.8-1.6,4.1-2.2,6.3-2.9c16.7-5.6,33.5-11.2,50.3-16.8c2.2-0.7,4.5-1.3,6.5-2.7c2.5-1.7,4.6-4,3.1-7.1
	c-1.6-3.2-4.6-1.9-7.1-1c-5.3,2-10.7,3.8-16.2,4.9c-14.6,2.9-29,6.6-43,11.4c-59.3,20.4-119.7,36.9-180,53.8
	c-6.3,1.8-12.7,2.7-19.2,1c-4.1-1.1-7.6,0-10.3,3.3c-1.4,1.7-3.4,2.6-5.4,3.4c-4.4,1.6-8.9,3.1-13.5,3.7c-7.2,0.9-10,4.8-11.3,11.7
	c-3.6,18.9-7.1,37.9-8.5,57.1c0,2.3,0,4.7,0,7c1.2,10.2,8.3,14,17.2,16c3.9,0.9,7.8,1.9,11.7,2.6c11.1,2.1,22.4,4.3,33.7,1.5
	c14.7-3.7,29.8-2.5,44.7-3.6c13.3-1,26.5-2,39.7-3.8c19-2.6,37.8-6,56.8-8.5c25.6-3.5,51.2-6.7,76.6-10.7
	c21.2-3.4,42.4-6.7,63.8-8.4c12.1-0.9,24.4-1.6,35.9-5.8c15.8-5.8,31.7-11.3,48.8-11.5c13.5-0.2,26.7-3.3,40.2-3.6
	c10.5-0.3,21-0.9,31.4-2.2c29.1-3.7,57.9-9,86.3-16.5c9.7-2.5,19.5-4.2,29.5-5.3c23.5-2.6,46.9-5.6,70.2-9.8
	c17.6-3.1,35-7.6,53.3-6.5c8.6,0.5,17.4-2.4,26.1-4c12.3-2.3,24.7-4.5,37.1-1.6c7,1.6,13.6,0.5,20.1-1.8c6.8-2.4,13.7-4,20.8-5.2
	c18.4-3.2,37-4.6,55.5-7c12.9-1.7,25.6-4.5,38.5-5.6c5.7-0.5,11.3,0.6,16.9,0.4c15.1-0.6,30.2-2.5,45.3-2.7
	c10.5-0.1,20.9-0.2,31.4,1.7c7.6,1.4,15.3-0.7,22.9-0.6c16.2,0.3,32.2-2.7,48.2-3.7c15.4-0.9,31-2.3,45.7,4.9
	c2.7,1.3,5.9,2.2,8.8,1.4c12-3.3,23.7-2.2,35.2,2.1c0.1,0.1,0.2,0.1,0.2,0.1c0,0-0.1-0.1,0.3,0c19.6,3,39.2,6,58.7,9.1
	c24,3.8,48.2,6.7,71.7,13c8.7,2.3,17.3,4.8,25.9,7.5c1.4,0.5,3,1,3.3,2.8c0.3,2-1.4,2.9-2.7,3.8c-2,1.3-4.3,1.9-6.5,2.6
	c-29.2,9.2-58.7,17.5-88.5,24.9c-52.3,13.2-104.9,25.5-157.7,36.6c-39.7,8.3-79.3,17.7-119.3,24.9c-17.9,3.2-35.6,7.2-53.2,11.5
	c-20.9,5-42.2,8-63.1,13.1c-38.7,9.4-77.7,17.5-116.4,26.5c-40.8,9.5-80.8,21.5-119.9,36.4c-38.6,14.7-75.6,33.2-113.9,48.8
	c-1,0.9-2.1,1.5-3.3,1.9c-2.2,0.8-4.2,1.9-6.3,3c-0.8,0.5-1.5,0.9-2.3,1.3c-2,1.6-4.1,1.3-6.2,0.4c-0.9-0.4-1.9-0.8-3-0.8
	c-6.8,1.9-12.4,6.4-19.2,8.3c-17.8,4.9-26.7,17.7-29.9,35c-2.6,13.7-3.7,27.7-5.1,41.5c-0.5,5.1-1.7,10.2-1,15.4
	c0.4,3,0.6,6.1,4.5,6.8c3.1,0,6.2,0,9.4,0c2.9-0.2,5.7-0.8,7.3-3.5c2-3.5,5.1-5.6,8.4-7.6c6.4-3.8,12.8-7.7,19.4-11.4
	c16.7-9.5,33.7-18.1,52.2-23.7c10-3.1,19.4-7.3,27.8-14c7.3-5.8,15.5-10.7,25.2-11.2c11.2-0.6,21.6-3.8,31.9-7.7
	c13.3-5,26.8-8.9,40.6-12.2c16.5-3.9,33.1-7.7,49.6-11.6c25-5.9,49.9-11.7,74.9-17.5c14.4-3.4,29.1-5.8,42.5-12.6
	c8.6-4.4,17.4-8.4,27-10.3c2-0.4,4.2-0.8,5.5-2.1c6.5-6.4,13.9-7,22.7-6.1c7.9,0.8,16.2-1.7,22.2-8.1c2.4-2.6,5.6-3.3,8.9-4.2
	c10.4-2.9,21.3-3.8,31.7-6.6c4.2-1.1,8.6-1.1,12.8,0.3c4.4,1.5,8.1,0.7,11.5-2.5c1.5-1.4,3.2-2.8,5.2-2.6c4.3,0.4,7.7-1.4,11.1-3.6
	c2.1-1.3,4.5-2.3,6.9-2.8c36.3-8.4,72.7-16.9,109.2-24.4c45-9.3,89.5-21,133.8-33.1c28.3-7.7,56.7-14.9,84.7-23.5
	c1.4-0.4,3.1-1.4,4.2-0.1c1.4,1.5-0.5,2.6-1.2,3.8c-2.7,4.2-1.6,6.3,3.4,6.8c4.2,0.4,8.2-0.6,12.3-1.7c17.3-4.8,34.4-10.7,51.4-16.5
	c13.7-4.7,27.3-9.9,39.6-17.7c13-8.2,24-18.4,27.7-34C1038.5,458.9,1038.1,452.4,1024.1,444.1z M365.9,148.1c1.2-2.6,3.3-0.6,5-1
	C369.4,148.3,367.6,147.9,365.9,148.1z M477.2,159.4c-9.9,2.5-19.7,2.3-29.1-2.8c9.5-1.5,18.9-3,28.4-4.5c2.3-0.4,3.4,0.9,3.9,2.9
	C480.9,157.6,479.3,158.9,477.2,159.4z M539.3,159c8.6-10.4,25.9-11.6,40.5-2.7C566.4,162.6,553.2,162.2,539.3,159z M621.7,157.5
	c-0.5,2.5-3.4,2-5.1,2.6c-2.3,0.1-4.3-1-4-2.9c0.4-2.8,3.5-2.5,5.6-2.9C620.5,153.8,622,155.8,621.7,157.5z M634.7,165.6
	c4.4-1.9,4.5-3.9,1-6.4c-1.8-1.3-2.3-3.2-1.2-5.3c1.9-3.4,4.6-5.7,8.8-5.5c5.8,0.3,11.6,0.7,17.5,0.8c18.5,0.6,37,1.6,55.4,1.5
	c15.7-0.1,30.7,3.5,46,5.7c6,0.9,11.9,1,17.9-0.4c11.5-2.6,22.9-0.3,34.3,0.9c19.5,2.2,38.9,5.2,58.2,9.3c1,0.2,1.9,0.5,3,1.8
	c-1.9,0.3-3.9,0.7-5.8,0.9c-15.8,1.9-31.6,3.1-47.3,0.8c-22.1-3.2-43.8-0.3-65.6,2.8c-3.6,0.5-6.4,1-3.2-4.1c1.9-3-0.1-5.9-4.3-6.6
	c-7.4-1.3-15-1.4-22.3,0.5c-12.8,3.4-26.2,4.6-38.6,2.4c-9.2-1.7-16.4,0.7-24.4,2.4C654.3,169.1,644.7,168,634.7,165.6z M-6.7,421.8
	c-1.5-0.1-3.4-0.5-3.5-2.2c-0.1-1.6,1.5-2.5,3.1-2.4c1.5,0.1,2.9,0.8,3.4,2.4C-4.2,421.1-5.3,421.9-6.7,421.8z M30.7,414.1
	c-0.5,2.7-3.2,1.4-4.7,2c-1.4-0.2-3.6,0.4-3.2-1.3c0.6-2.7,3.5-1.6,5.4-2.1C29.2,412.5,30.9,412.6,30.7,414.1z M56.4,411.1
	c-0.5,0.1-1,0-1.5-0.1c-1.2-0.3-3.1-0.3-3.1-1.8c0-1.9,1.9-1.2,3.1-1.3c0.6-0.1,1.3,0,2.2,0c1.8,0.8,5.7-1.1,5.6,1.7
	C62.6,412.3,58.7,410.7,56.4,411.1z M108.1,406.8c-1.1-0.1-2.4-0.6-2.2-2c0.2-1.2,1.4-1.1,2.3-1c1,0.1,1.9,0.3,2.1,1.6
	C109.9,406.5,109.1,407,108.1,406.8z M130.5,403.3c-2.5-0.4-5.2-0.7-5.4-3.5c-0.2-2.9,2.4-3.4,4.6-3.3c3.1,0.1,7.1,1.4,7.3,4
	C137.2,402.9,132.8,402.6,130.5,403.3z M165.4,397c2.9-2.7,5-3.2,8.2-0.7C170.8,397.3,168.7,397.3,165.4,397z M190.4,391.6
	c-0.2,1.2-1.3,1.8-2.5,1.9c-1-0.2-2.2-0.3-2.1-1.5c0.1-1.5,1.4-2.1,2.8-2.2C189.6,389.7,190.6,390.5,190.4,391.6z M198.9,434.8
	c-1.2,0-2.4-0.4-2.3-1.9c0.1-1.1,1.3-1.3,2.1-1.5c1.3,0.2,2.6,0.6,2.5,2C201,434.4,199.8,434.8,198.9,434.8z M220,386.9
	c6.1-2.1,11-3,16.9,0C230.9,389.8,226,389.7,220,386.9z M279.2,417.6c-7.9,1.6-13.9,7.6-21.4,8.7c-2.4-0.3-4.3-0.3-6-0.9
	c-2-0.7-5.6,0.4-5.5-2.8c0.1-3,1.4-6.4,4.8-7.6c8.8-3,18-4.6,27.1-6.7c1.3-0.3,2.4,0.1,2.5,1.6C281,412.7,281.8,417.1,279.2,417.6z
	 M353.7,412.1c-4.6,0-7.4-3.4-6-7.4c0.7-2.1,2.2-4.1,4.5-4c2.2,0.1,1.4,2.6,2,4c0.6,1.5,1,3.1,1.7,4.6
	C356.8,411.7,355.8,412.3,353.7,412.1z M423.2,401.2c4.7-1.6,6.9-1.6,10.9-0.3C430.9,402.3,429,402.4,423.2,401.2z M435.5,393.8
	c-3.9,0.2-7.7,0-11.3-2.6c3.6-0.4,7.2-0.8,10.8-1c1.2-0.1,3-0.7,3.2,1.2C438.3,392.8,436.9,393.7,435.5,393.8z M447.9,376.7
	c-1.4,0.4-2.5-0.6-2.3-1.9c0.5-3.1,3.4-1.7,5.2-2.4c1-0.4,1.9,0.3,2,1.7C452,376.2,449.7,376.2,447.9,376.7z M511.1,391.9
	c-0.8,4.4-1.5,8.9-1.6,13.3c-0.1,4.6-1.7,6.8-6.5,6c-1.1-0.2-2.3,0-3.5,0c-10.7-0.3-9.4,2.2-10.4-9.8c-0.9-10.5-1.7-8.4,8.2-10.6
	c3.4-0.7,6.9-1.3,10.2-2.2C510.7,387.9,511.8,388.4,511.1,391.9z M497.8,383.1c8.8-2.7,16.3-2.9,24.3-1.1
	C517.2,385.3,506.8,385.9,497.8,383.1z M561,366.2c0.1-2.3,1.3-3.8,3.5-4.2c2.3-0.4,4.6-0.7,6.9-0.9c7.4-0.5,14.9-0.9,22.3-1.5
	c3.4-0.3,3.7,1.1,2.7,3.8c-1.4,3.6-4.3,5.5-8,5.9c-3.9,0.5-7.9,0.7-11.9,1.1c-4-0.2-8-0.2-11.9-1.1
	C562.9,368.9,560.9,368.8,561,366.2z M561.7,381.4c1.4-3.3,3.2-5.5,6.4-5.5c12.5-0.1,24.9,0,37.4,0
	C591.5,382.4,576.8,380.9,561.7,381.4z M607.9,365.1c-3.6-0.5-8-1.3-8.6-4.7c-0.4-2.3,4.2-1.8,6.6-1.9c3-0.2,5.8,1.6,6.1,4.7
	C612.3,365.8,609.4,364.5,607.9,365.1z M745.7,364c-6.8,1.2-13.5,1.2-20.3,0.5c-9.8-1-19.5-1.3-29.2,1.6c-5.1,1.6-10-0.4-12.8-4.4
	c-1.5-2.2-1.2-3.5,1.2-4.6c1.7-0.7,3.4-1.4,5.3-1.3c18.6,0.9,37.2,0.7,55.7,3.5c2,0.3,4.3,0,5.9,1.8
	C749.9,363.2,747.8,363.6,745.7,364z M898.2,393.2c-0.4-0.2-1.2-0.4-1.2-0.6c0-0.9,0.8-0.8,1.3-0.7c0.4,0,0.8,0.4,1.2,0.6
	C899.1,392.7,898.7,392.9,898.2,393.2z M906.5,393.3c3.1-0.6,5.2,1,8.8,2.5C910.8,397.4,908,397.8,906.5,393.3z M919.9,529.3
	c6.4-6.1,13.6-7.1,21.9-7.1C936.7,530.1,932,531.6,919.9,529.3z M950.7,469.6c-2.4,1.9-5.4,2.5-8.2,3.5
	c-69,24.4-140.1,40.7-211.6,55.7c-27,5.7-53.1,14.1-79.6,21.6c-14.5,4.1-29.6,4.7-44.2,8c-20.7,4.6-41.1,10.3-62.1,13
	c-49.3,6.1-97.3,17.8-145,31.1c-19.3,5.4-39.4,6.9-58.9,10.9c-50.8,10.5-99.6,27.3-146.8,48.5c-4.8,2.2-10,3.7-15,5.5
	c-0.9,0.3-2.1,0.9-2.6-0.3c-0.3-0.6,0.2-1.6,0.5-2.3c2.8-5.2,7.1-9.1,12.6-10.9c31.3-10.7,61.3-25,94.2-31.4
	c18.5-3.6,36.4-10.8,54.8-15.4c43.9-11.2,88.6-19.3,132.8-29.1c39.5-8.7,78.7-19.1,118.5-26.6c64.7-12.1,129.2-25.4,193.2-40.7
	c50.3-12,100.6-24.9,148.8-44.5c5.6-2.3,11.3-5.2,17.8-3.7c1.6,0.4,3.3,0.6,3.9,2.3C953.4,467,952.2,468.4,950.7,469.6z M932.3,402
	c1.9-1.6,3.5-1.2,6.2-0.9C936.1,402.5,934.7,403.6,932.3,402z M995.6,406.1c-1.3,3.7-4.3,5.9-8.5,5.8c-3.1,0-5.9-1.3-8.5-2.6
	c-5.2-2.5-10.6-3.9-16.3-4.2c-2.9,0.4-6,1.4-8.6-1c-8.8-6-17.5-12.5-28.4-14.1c-8.9-1.3-17.8-1.7-26.6-3.9c-5-1.2-10.3-0.2-15.3,1.1
	c-5.2,1.4-10.4,1.5-15.7,0.4c0.2-0.7,0.1-1.1,0.3-1.3c1.2-1.4,4.4-1.1,4.1-3.7c-0.4-2.9-2.8-4.7-5.5-5.3c-6.8-1.5-13.7-2.5-20.6-3.8
	c-18.7-3.4-37.4-6.8-56.6-5.4c-4,0.3-7.3-1.7-11.5-3.9c10.7-3.8,20.6-6.3,31.3-5.2c47.7,4.8,94.8,12.6,140.8,26
	c12.1,3.5,24.4,6.8,35.9,12.4c1.8,0.9,3.6,1.8,5.2,3C993,402,996.8,402.6,995.6,406.1z"/>
<path class="st1" d="M1039,431c-2.7,3.4-4.2,7.8-9.1,11.2c2.3-7.9,4.2-14.6,6.1-21.4c2.4,0.8,1.6,3.2,2.9,4.2
	C1039,427,1039,429,1039,431z"/>
<path class="st2" d="M14,799c-0.1-0.3-0.1-0.6-0.1-0.9c3.4,0,6.8,0,10.2,0c0,0.3-0.1,0.6-0.1,0.9C20.7,799,17.3,799,14,799z"/>
<path class="st3" d="M807.9-5.1c0-0.3,0.1-0.6,0.1-0.9c2.3,0,4.7,0,7,0c0.1,0.3,0.1,0.5,0.2,0.8C812.8-5.1,810.3-5.1,807.9-5.1z"/>
<path class="st0" d="M767.4,424.2C767.4,424.2,767.4,424.2,767.4,424.2L767.4,424.2z"/>
<path class="st4" d="M953.7,404.1c2.8,1.2,5.7,0.8,8.6,1c-5,0.9-10,1.8-15,2.7c-1.7,0.3-3.4,0.1-4.1-1.9c-0.4-1.3-0.9-2.8,0.1-3.8
	c1.3-1.4,2.7,0.2,4,0.4C949.4,402.9,951.1,405.2,953.7,404.1z"/>
<path class="st5" d="M-204.8,403c1.1,0.2,3-0.2,2.3,1.6c-1.2,3-4.2,4.1-7,4.8c-1.7,0.5-1.7-1.2-1.5-2.3
	C-210.6,403.4-207.5,403.4-204.8,403z"/>
<path class="st6" d="M-186.8,400.7c-3.8,1.5-7.3,1-11,1.2C-194.8,399.1-192.8,398.9-186.8,400.7z"/>
<path class="st7" d="M70.9,688.9c1.5-1.2,3.3-1,5-0.9c1.8,1,1.2,2.6,1.1,4.1c-0.7,0.3-1.3,0.6-2,0.9c-2.2,1.6-4.7,0.7-7,0.9
	c-0.7-0.3-1.4-0.7-2.1-1c0.6-0.7,1.2-1.3,1.8-2C69.3,690.9,70.9,691.2,70.9,688.9z"/>
<path class="st5" d="M77.1,692.1c-1.3-1.1-1-2.6-1.1-4.1c0,0,0,0,0,0c2.5-0.8,5.3-3.1,7.2,1C81.1,690.1,79.1,691.1,77.1,692.1z"/>
<path class="st8" d="M370.8,147.1c1.9-0.1,3.9-0.5,6.8,2c-4.8-0.4-8.3,0.7-11.8-1C367.3,146.7,369.3,148.1,370.8,147.1z"/>
<path class="st9" d="M585.2,387.3c-0.6,1.1-1.6,1.6-2.9,1.4c-1-0.2-2.1-0.8-1.8-2c0.3-1.3,1.5-1.7,2.8-1.4
	C584.2,385.6,585.1,386.1,585.2,387.3z"/>
<path class="st10" d="M125.3,689.1c1.4-3.2,3.1-4.1,6.3-3.9C130.2,687.7,128.3,688.4,125.3,689.1z"/>
<path class="st11" d="M83.1,689c-2.2-1.7-4.8-0.8-7.2-1c0.4-1,1.2-1.5,2.2-1.9c1.6-0.1,3.1-0.1,4.7,0c1,0.6,2.1,1.2,3.1,1.9
	C85,688.4,84.1,688.7,83.1,689z"/>
<path class="st12" d="M68.1,693.9c2.2-1.6,4.7-0.7,7-0.9C73.2,696.4,70.7,695.4,68.1,693.9z"/>
<path class="st13" d="M571.4,404.4c0.8,0.2,1.7,0.4,1.7,1.4c-0.1,1-1,1.1-1.8,1.2c-0.9,0.1-1.7-0.2-1.6-1.3
	C569.7,404.7,570.6,404.5,571.4,404.4z"/>
<path class="st14" d="M122.8,689.8c-0.1,1.2-0.8,1.2-1.4,1.1c-0.5-0.1-1.4-0.5-1.4-0.8c-0.2-0.8,0.6-1,1.3-0.9
	C121.8,689.3,122.3,689.6,122.8,689.8z"/>
<path class="st15" d="M168.9,666.1c2.2-0.3,3.3,0,3.9,1.5C171.2,668.3,170.3,667.6,168.9,666.1z"/>
<path class="st16" d="M509.4,370.6c-0.3-0.2-0.9-0.4-1-0.7c-0.2-1.1,0.8-1.2,1.6-1.3c0.3-0.1,1.1,0.3,1.1,0.5
	C511.3,370.3,510.2,370.2,509.4,370.6z"/>
<path class="st17" d="M508.1,343.9c-1.1-0.1-2.6,0.4-2.8-1.1c-0.1-1,1.2-0.7,1.9-0.7C507.5,342.7,507.8,343.3,508.1,343.9z"/>
<path class="st7" d="M190.9,447.4c-0.4,0.1-1,0.4-1.5,0.4c-0.5,0-0.7-0.6-0.4-1c0.3-0.3,0.8-0.5,1.2-0.6
	C190.8,446.1,191.1,446.5,190.9,447.4z"/>
<path class="st18" d="M582.8,572.7c-0.8,0-1.3-0.3-1-0.8c0.3-0.5,0.9-0.9,1.4-1.1c0.5-0.2,1,0.3,0.7,0.8
	C583.8,572.1,583.1,572.4,582.8,572.7z"/>
<path class="st19" d="M609.4,386.3c0.6,0.1,0.9,0.4,0.8,1c-0.1,0.2-0.5,0.5-0.7,0.5c-0.6,0-0.9-0.4-0.7-1
	C608.8,386.6,609.2,386.4,609.4,386.3z"/>
<path class="st14" d="M355.3,74.9c-0.2,0.2-0.5,0.6-0.7,0.5c-0.2,0-0.4-0.4-0.6-0.6c0.2-0.2,0.5-0.5,0.6-0.5
	C354.9,74.3,355.1,74.7,355.3,74.9z"/>
<path class="st20" d="M213.6,446.5c-0.4,0.1-0.9,0.4-1.2,0.4c-0.6-0.1-0.7-0.6-0.3-1c0.3-0.3,0.8-0.3,1.3-0.3
	C213.4,445.6,213.5,446.1,213.6,446.5z"/>
<path class="st21" d="M729.3,170.9c-0.2,0.4-0.3,0.9-0.4,0.9c-0.5,0-0.9-0.2-1.4-0.3c0.1-0.3,0.2-0.8,0.4-0.8
	C728.4,170.7,728.8,170.8,729.3,170.9z"/>
<path class="st22" d="M492.7,373.4c-0.6,0.2-1,0.6-1.3,0.5c-0.4-0.1-0.6-0.6-0.9-0.9c0.3-0.2,0.7-0.6,1-0.6
	C491.8,372.5,492.1,372.9,492.7,373.4z"/>
<path class="st23" d="M792.3,377.7c-0.4,0.3-0.6,0.7-1,0.9c-0.1,0.1-0.5-0.3-0.7-0.4c0.3-0.3,0.5-0.7,0.8-0.9
	C791.5,377.2,791.9,377.5,792.3,377.7z"/>
<path class="st24" d="M707.9,401.1c-0.6,0.2-1.1,0.6-1.4,0.4c-0.3-0.1-0.4-0.7-0.6-1c0.3-0.1,0.6-0.4,0.8-0.4
	C707.1,400.3,707.3,400.6,707.9,401.1z"/>
<path class="st25" d="M612.8,166.3c0.2,0.2,0.5,0.5,0.4,0.7c-0.1,0.6-0.6,0.7-1,0.4c-0.2-0.1-0.3-0.6-0.2-0.7
	C612.2,166.4,612.6,166.4,612.8,166.3z"/>
<path class="st26" d="M789,387.2c-0.2,0.2-0.5,0.6-0.6,0.5c-0.2,0-0.4-0.4-0.6-0.6c0.2-0.2,0.5-0.6,0.6-0.5
	C788.6,386.6,788.8,386.9,789,387.2z"/>
<path class="st27" d="M727,331.2c68.9,0.3,137.4,5.1,204.8,20.7c22.2,5.2,44.3,11.2,66,18.1c10,3.2,19.6,7.4,28.9,12.4
	c5.6,3,9.4,7.3,10.6,13.7c0.5,2.6,0.2,4.8-2.4,5.9c-2.3,0.9-3.9-0.8-4.9-2.5c-6.6-11.5-17.4-16.8-29.4-20.9
	c-52.7-18.3-107-28.7-162.5-33.9c-50-4.7-100-7.2-150.2-7c-7.2,0-14.3-0.3-21.5-0.5c-1.5-0.1-3.8,0.7-4-1.8
	c-0.2-2.5,1.8-3.4,3.9-3.5c7.8-0.3,15.6-0.6,23.5-0.6C702.4,331.2,714.7,331.2,727,331.2z"/>
<path class="st28" d="M485,350c-6.6,1.4-13.1,1.2-20.7-0.1c7.3-3.9,13.7-6.5,20.7-1.8C485.6,348.7,485.6,349.3,485,350z"/>
<path class="st29" d="M382.5,356c5.1-2.4,10.3-2.4,15.5-1.7c1.2,0.2,3.1,0.2,3.2,1.7c0.1,1.8-2,1.9-3.3,2.4
	c-2.1,0.8-4.3,0.1-6.3-0.3C388.5,357.5,385.5,356.7,382.5,356z"/>
<path class="st27" d="M755.9,129.5c5.4-0.4,10.7-0.5,16.1,1.2c-5.4,0-10.8,0-16.1,0C755.8,130.4,755.9,129.9,755.9,129.5z"/>
<path class="st30" d="M321.4,366.5c-1.7-0.6-4.6,0.6-4.3-1.5c0.4-2.3,3.6-1.5,5.6-1.8c1.3-0.2,3.2-0.2,2.9,1.6
	C325.2,367.7,322.6,365.6,321.4,366.5z"/>
<path class="st31" d="M501.2,346.1c-1.8,2.6-4,4.2-8.5,3.7c3.4-2.4,5.9-4.2,8.4-6C501.6,344.5,501.6,345.3,501.2,346.1z"/>
<path class="st18" d="M231.6,718.4c2.6-2,5.4-1.3,8.2-0.6C237.2,719.6,234.4,718.8,231.6,718.4z"/>
<path class="st32" d="M194.6,731c1-2.9,1.9-4.6,4.5-4.8c0.7,0,1.6,0.6,1.2,1.1C199.2,729.1,197.3,729.9,194.6,731z"/>
<path class="st33" d="M485,350c0-0.6-0.1-1.3-0.1-1.9c2.4,1,4.7,2,7.3,3.1C489.2,353.2,487.3,350.1,485,350z"/>
<path class="st34" d="M225.9,721c-1.6,0.8-2.6,2.9-5.2,2.8c0.5-2.8,2.9-2.8,4.3-3.9C225.9,719.7,226.3,720,225.9,721z"/>
<path class="st35" d="M861.1,138.3c0.8,0.1,1.8,0.1,1.9,1c0.1,1-0.9,1.2-1.7,1.2c-0.8,0.1-1.7-0.1-1.8-1.1
	C859.4,138.4,860.3,138.3,861.1,138.3z"/>
<path class="st36" d="M185.2,731.1c2.4-1.5,3.7-0.4,6.3,0.3C188.8,732.1,187.3,732.3,185.2,731.1z"/>
<path class="st37" d="M139.1,739.3c0.8,0,1.7,0.1,1.6,1.2c0,0.3-0.7,0.8-0.9,0.8c-0.7-0.2-1.8-0.5-2-1
	C137.5,739.6,138.5,739.4,139.1,739.3z"/>
<path class="st7" d="M361.7,360.8c-0.2-0.2-0.8-0.4-0.8-0.7c-0.1-0.8,0.6-1,1.3-0.9c0.4,0.1,0.9,0.4,1,0.7
	C363.3,360.7,362.5,360.8,361.7,360.8z"/>
<path class="st14" d="M439.1,351.3c-0.2,0.5-0.9,1.1-1.7,0.9c-0.3,0-0.8-0.7-0.7-0.9c0.3-0.8,1-1.3,1.8-1.2
	C439,350.1,439.5,350.3,439.1,351.3z"/>
<path class="st38" d="M736,130.3c0.4,0.6,0.8,1,0.7,1.3c-0.1,0.3-0.6,0.5-1,0.6c-0.1,0-0.5-0.5-0.5-0.7
	C735.3,131.1,735.7,130.8,736,130.3z"/>
<path class="st18" d="M225.9,721c-0.3-0.4-0.6-0.8-0.9-1.2c0.8-0.7,1.6-1.6,2.9-1.1C228,720.1,226.8,720.4,225.9,721z"/>
<path class="st17" d="M501.2,346.1c-0.1-0.8-0.1-1.5-0.2-2.3c0.3-0.4,0.5-0.7,0.8-1.1C502.7,344.1,501.8,345,501.2,346.1z"/>
<path class="st37" d="M70.9,688.9c1.3,0.3,3.5-0.5,3.5,1.6c0,2-2.2,1.4-3.5,1.5c-1.1,0.1-2.3-0.2-3.1-1
	C68.8,690.3,69.9,689.6,70.9,688.9z"/>
<path class="st37" d="M82.9,686.2c-1.6,1.1-3.1,1.1-4.7,0C79.7,685.1,81.3,685.1,82.9,686.2z"/>
<path class="st39" d="M134.2,304.5c4-3.1,7.5-4.6,11.5-5.8c27.3-7.9,55.5-11,83.2-16.5c46.9-9.3,94.3-15.8,140.7-27.5
	c7-1.8,14.4-2.2,22.4-3.4c-2.8,5.4-7,6.9-11.6,7.8c-29,5.3-58.1,10.3-87,15.9c-49.2,9.6-98.6,18.3-147.5,29.3
	C142.3,305.1,138.8,305.4,134.2,304.5z"/>
<path class="st37" d="M-42.1,347c-21.5,7.3-42.4,17.2-65.7,18.1C-86.9,355.7-64.8,350.3-42.1,347z"/>
<path class="st40" d="M26.9,328.2C14.4,332.6,2,337.4-10.4,342c-2.2,0.8-2.8-0.2-2.3-2.2c0.5-2.2,1.2-4.4,3.5-5.1
	C2.5,330.8,14.2,327.3,26.9,328.2z"/>
<path class="st41" d="M77.3,317.6c-9.1,2.3-17.9,5.4-27.3,6.1C57.8,316,67.5,316.6,77.3,317.6z"/>
<path class="st42" d="M-26.6,341.3c4.9-4.1,8.1-3.7,11.8,1.4C-18.9,342.8-22.6,342.2-26.6,341.3z"/>
<path class="st43" d="M119.1,309.8c-4.1,1.1-8,1.6-12.4,1C111.5,306.2,114,306,119.1,309.8z"/>
</svg>
