<?xml version="1.0" encoding="utf-8"?>
<!-- Generator: Adobe Illustrator 19.0.0, SVG Export Plug-In . SVG Version: 6.00 Build 0)  -->
<svg version="1.1" id="Layer_1" xmlns="http://www.w3.org/2000/svg" xmlns:xlink="http://www.w3.org/1999/xlink" x="0px" y="0px"
	 viewBox="0 0 81.9 57.9" style="enable-background:new 0 0 81.9 57.9;" xml:space="preserve">
<style type="text/css">
	.st0{fill:#E3E3E3;}
</style>
<g>
	<path class="st0" d="M43.2,29.1c-0.1-0.1-0.2-0.1-0.3,0c-0.1,0.1-0.1,0.2,0,0.3c0.7,0.7,0.1,1.7-0.5,2.5l-0.1,0.2
		c-0.3,0.4-0.5,0.7-0.6,1l-2.8-6.9c0.5,0.1,1.2-0.1,1.6-0.6c0.7-0.7,0.8-1.7,0.3-2.2c-0.5-0.5-1.5-0.4-2.2,0.3
		c-0.6,0.6-0.7,1.4-0.5,1.9l3.4,8.4c0,0.1,0.2,0.2,0.3,0.1c0.1,0,0.2-0.2,0.1-0.3l0,0c0-0.3,0-0.6,0.6-1.5l0.1-0.2
		C43.2,31.6,44.2,30.2,43.2,29.1z"/>
</g>
</svg>
