<?xml version="1.0" encoding="utf-8"?>
<!-- Generator: Adobe Illustrator 19.0.0, SVG Export Plug-In . SVG Version: 6.00 Build 0)  -->
<svg version="1.1" id="Layer_1" xmlns="http://www.w3.org/2000/svg" xmlns:xlink="http://www.w3.org/1999/xlink" x="0px" y="0px"
	 viewBox="0 0 81.9 57.9" style="enable-background:new 0 0 81.9 57.9;" xml:space="preserve">
<style type="text/css">
	.st0{fill:#E3E3E3;}
</style>
<g>
	<path class="st0" d="M41.3,31.1c0-0.1-0.1-0.2-0.2-0.2c-0.1,0-0.2,0.1-0.2,0.2c-0.1,0.9-1,1.1-2,1.1l-0.2,0c-0.4,0-0.7,0.1-1,0.2
		l3-5.9c0.2,0.4,0.8,0.7,1.4,0.7c0.9,0,1.6-0.4,1.6-1.1c0-0.6-0.6-1.2-1.5-1.3c-0.7,0-1.4,0.3-1.6,0.8l-3.7,7.2
		c-0.1,0.1,0,0.2,0.1,0.3c0.1,0.1,0.2,0,0.3-0.1l0,0c0.2-0.2,0.4-0.4,1.4-0.5l0.2,0C39.7,32.6,41.1,32.4,41.3,31.1z"/>
</g>
</svg>
