<svg width="26" height="26" viewBox="0 0 26 26" fill="none" xmlns="http://www.w3.org/2000/svg">
<g clip-path="url(#clip0_719_3)">
<path fill-rule="evenodd" clip-rule="evenodd" d="M0.33128 13.3313C0.592627 13.5926 0.737216 13.5132 1.0936 13.5139C3.70299 13.5139 23.1411 13.4657 23.4676 13.5302C23.1832 13.8146 15.2274 21.6862 15.1011 21.9496C14.833 22.511 15.5247 22.9312 15.8763 22.5795L25.1904 13.2654C25.2875 13.1683 25.2875 12.8317 25.1904 12.7346L15.8763 3.42046C15.522 3.06611 14.8547 3.49038 15.0923 4.01714C15.2287 4.32058 18.6418 7.64545 18.9582 7.96178C20.4611 9.46469 21.9633 10.9669 23.4662 12.4698C23.1499 12.5323 3.72675 12.4868 1.1255 12.4868C0.760296 12.4868 0.594663 12.404 0.329923 12.6687C0.143925 12.8547 0.143925 13.1453 0.329923 13.3313L0.33128 13.3313Z" fill="white"/>
</g>
<defs>
<clipPath id="clip0_719_3">
<rect width="18" height="18" fill="white" transform="translate(0 13) rotate(-45)"/>
</clipPath>
</defs>
</svg>
